name C:\Users\u0101727\Documents\MyRepositories\upper-imu-dc\Results\main_mocap_tracking\Case_13\FLX01_linearAccelerations_bodyFrame.mot
datacolumns 4
datarows 100
range 1.510000 2.500000
endheader 
time	radius_imu_x	radius_imu_y	radius_imu_z	
          1.51000000	         -5.82470319	          2.15110891	          7.94077503	
          1.52000000	         -6.04006501	          1.96265889	          8.03258235	
          1.53000000	         -6.13653994	          1.77398002	          8.12180253	
          1.54000000	         -6.14755971	          1.58482449	          8.20676286	
          1.55000000	         -6.06763735	          1.39892925	          8.28764367	
          1.56000000	         -5.89854956	          1.22412698	          8.37175117	
          1.57000000	         -5.63959561	          1.06735493	          8.46190051	
          1.58000000	         -5.31020846	          0.93245513	          8.55668766	
          1.59000000	         -4.94192248	          0.81626209	          8.65146778	
          1.60000000	         -4.56744786	          0.71587117	          8.74139961	
          1.61000000	         -4.22256104	          0.61883030	          8.82128424	
          1.62000000	         -3.94646004	          0.52085782	          8.88619226	
          1.63000000	         -3.77674005	          0.41831034	          8.93237218	
          1.64000000	         -3.71274566	          0.31896451	          8.96071191	
          1.65000000	         -3.72049218	          0.23171284	          8.97898368	
          1.66000000	         -3.74363472	          0.16252594	          8.99637265	
          1.67000000	         -3.72770178	          0.11291965	          9.02155326	
          1.68000000	         -3.65989680	          0.07752793	          9.05565045	
          1.69000000	         -3.57556536	          0.04572269	          9.09137672	
          1.70000000	         -3.53373713	          0.00558921	          9.11647803	
          1.71000000	         -3.57427121	         -0.05197113	          9.12081018	
          1.72000000	         -3.69364495	         -0.13118017	          9.10114416	
          1.73000000	         -3.85094846	         -0.23200177	          9.06142514	
          1.74000000	         -3.99422262	         -0.35234882	          9.00916487	
          1.75000000	         -4.09453484	         -0.49038261	          8.94988178	
          1.76000000	         -4.16839086	         -0.64554614	          8.88294434	
          1.77000000	         -4.26721334	         -0.81766004	          8.80259173	
          1.78000000	         -4.44149941	         -1.00489967	          8.70345676	
          1.79000000	         -4.71112610	         -1.20227883	          8.58548768	
          1.80000000	         -5.05808502	         -1.40169169	          8.45475751	
          1.81000000	         -5.43804275	         -1.59367833	          8.32041456	
          1.82000000	         -5.80379900	         -1.77029350	          8.18996886	
          1.83000000	         -6.12465283	         -1.92751677	          8.06658442	
          1.84000000	         -6.38445302	         -2.06551035	          7.95073762	
          1.85000000	         -6.56699176	         -2.18668610	          7.84361703	
          1.86000000	         -6.65240679	         -2.29348582	          7.74794573	
          1.87000000	         -6.62877569	         -2.38769667	          7.66588066	
          1.88000000	         -6.50516772	         -2.47130190	          7.59668634	
          1.89000000	         -6.31299952	         -2.54747262	          7.53650954	
          1.90000000	         -6.09075753	         -2.62062301	          7.48087560	
          1.91000000	         -5.86555549	         -2.69579290	          7.42754280	
          1.92000000	         -5.65118559	         -2.77816745	          7.37651908	
          1.93000000	         -5.45880408	         -2.87254905	          7.32793982	
          1.94000000	         -5.29925348	         -2.98182098	          7.28142866	
          1.95000000	         -5.16896806	         -3.10459755	          7.23834838	
          1.96000000	         -5.03673421	         -3.23393548	          7.20395188	
          1.97000000	         -4.85319535	         -3.35881111	          7.18572491	
          1.98000000	         -4.57976670	         -3.46827850	          7.18847274	
          1.99000000	         -4.21545545	         -3.55641365	          7.20969652	
          2.00000000	         -3.80410663	         -3.62540745	          7.23826830	
          2.01000000	         -3.41649564	         -3.68519214	          7.25780384	
          2.02000000	         -3.12169124	         -3.74992905	          7.25287000	
          2.03000000	         -2.96756128	         -3.83286681	          7.21428337	
          2.04000000	         -2.97012578	         -3.94131084	          7.14210406	
          2.05000000	         -3.10755923	         -4.07362099	          7.04586944	
          2.06000000	         -3.32678209	         -4.21990315	          6.94097054	
          2.07000000	         -3.56457355	         -4.36643189	          6.84246246	
          2.08000000	         -3.77350279	         -4.50147143	          6.75956249	
          2.09000000	         -3.94043610	         -4.61922126	          6.69309469	
          2.10000000	         -4.08481864	         -4.72007063	          6.63702922	
          2.11000000	         -4.23238289	         -4.80787784	          6.58388012	
          2.12000000	         -4.38313410	         -4.88674862	          6.53059752	
          2.13000000	         -4.50196033	         -4.95960223	          6.48061228	
          2.14000000	         -4.53723713	         -5.02896180	          6.44145149	
          2.15000000	         -4.45038211	         -5.09859084	          6.42031250	
          2.16000000	         -4.24052433	         -5.17423038	          6.41919077	
          2.17000000	         -3.95569361	         -5.26261768	          6.43065171	
          2.18000000	         -3.68280330	         -5.36909770	          6.43710241	
          2.19000000	         -3.51477763	         -5.49489769	          6.41651028	
          2.20000000	         -3.51269574	         -5.63558127	          6.35229067	
          2.21000000	         -3.68850209	         -5.78185453	          6.24032358	
          2.22000000	         -4.01310438	         -5.92253608	          6.08891494	
          2.23000000	         -4.43548273	         -6.04826724	          5.91347430	
          2.24000000	         -4.89983270	         -6.15434236	          5.73002542	
          2.25000000	         -5.35607666	         -6.24156893	          5.55061984	
          2.26000000	         -5.76438591	         -6.31493948	          5.38156149	
          2.27000000	         -6.09590332	         -6.38092790	          5.22378567	
          2.28000000	         -6.33137094	         -6.44491003	          5.07439295	
          2.29000000	         -6.45894386	         -6.50977457	          4.92868233	
          2.30000000	         -6.47108655	         -6.57568025	          4.78242674	
          2.31000000	         -6.36094705	         -6.64026664	          4.63404501	
          2.32000000	         -6.12014018	         -6.69902697	          4.48604479	
          2.33000000	         -5.74022998	         -6.74625464	          4.34506848	
          2.34000000	         -5.21909663	         -6.77705677	          4.22008220	
          2.35000000	         -4.57123857	         -6.79020503	          4.11879001	
          2.36000000	         -3.83819155	         -6.79056371	          4.04323281	
          2.37000000	         -3.09296211	         -6.78937659	          3.98645953	
          2.38000000	         -2.43040566	         -6.80148518	          3.93316121	
          2.39000000	         -1.93964596	         -6.84032699	          3.86630998	
          2.40000000	         -1.67226705	         -6.91322022	          3.77667595	
          2.41000000	         -1.62926597	         -7.01943007	          3.66812480	
          2.42000000	         -1.77104852	         -7.15155560	          3.55551920	
          2.43000000	         -2.03615133	         -7.29878888	          3.45822922	
          2.44000000	         -2.35825634	         -7.44999650	          3.39350697	
          2.45000000	         -2.67911388	         -7.59538933	          3.37221224	
          2.46000000	         -2.95635682	         -7.72680796	          3.39745094	
          2.47000000	         -3.16512491	         -7.83740216	          3.46582587	
          2.48000000	         -3.29548082	         -7.92153523	          3.56921107	
          2.49000000	         -3.34619475	         -7.97556799	          3.69403023	
          2.50000000	         -3.33355810	         -7.99871030	          3.82975020	
